<svg width="446" height="446" viewBox="0 0 446 446" fill="none" xmlns="http://www.w3.org/2000/svg">
<path d="M426 223C426 335.114 335.114 426 223 426C110.886 426 20 335.114 20 223C20 110.886 110.886 20 223 20C335.114 20 426 110.886 426 223Z" fill="url(#paint0_radial_130_9)"/>
<path d="M426 223C426 110.886 335.114 20 223 20C110.886 20 20 110.886 20 223C20 335.114 110.886 426 223 426C335.114 426 426 335.114 426 223ZM446 223C446 346.16 346.16 446 223 446C99.8405 446 0 346.16 0 223C0 99.8405 99.8405 0 223 0C346.16 0 446 99.8405 446 223Z" fill="url(#paint1_linear_130_9)"/>
<path d="M231.126 318.071H216.126V237.277H231.126V318.071Z" fill="black"/>
<path d="M226.639 237.639H219.639L219.639 123.474H226.639L226.639 237.639Z" fill="black"/>
<path d="M90.0574 141.838C90.0574 137.257 86.3435 133.543 81.7625 133.543C77.1815 133.543 73.4676 137.257 73.4676 141.838C73.4677 146.419 77.1816 150.133 81.7625 150.133V154.133L81.4451 154.128C74.9071 153.963 69.6373 148.694 69.4715 142.156L69.4676 141.838C69.4676 135.048 74.9723 129.543 81.7625 129.543L82.0799 129.547C88.7233 129.716 94.0574 135.154 94.0574 141.838L94.0526 142.156C93.8841 148.799 88.4464 154.133 81.7625 154.133V150.133C86.3434 150.133 90.0573 146.419 90.0574 141.838Z" fill="black"/>
<path d="M90.3744 161.685C89.6563 157.613 88.2632 154.205 86.7227 151.987C85.0236 149.54 83.8691 149.447 83.6825 149.479C83.4972 149.512 82.4428 149.993 81.6823 152.875C80.9932 155.486 80.8498 159.166 81.5679 163.238C82.286 167.311 83.6791 170.718 85.2195 172.936C86.9199 175.384 88.0753 175.476 88.2606 175.443L88.7816 178.398L88.5903 178.426C84.7034 178.894 80.4222 172.827 78.7676 164.577L78.6135 163.759C77.0615 154.958 79.098 147.241 83.1616 146.525L83.3519 146.496C87.3661 146.013 91.8012 152.5 93.3288 161.164L93.4637 161.986C94.7515 170.44 92.7179 177.703 88.7816 178.398L88.2606 175.443C88.4471 175.41 89.4999 174.927 90.2599 172.047C90.9489 169.436 91.0925 165.758 90.3744 161.685Z" fill="black"/>
<path d="M84.0311 271.81C84.0311 268.565 83.3239 265.776 82.327 263.907C81.2614 261.909 80.2985 261.637 80.0057 261.637C79.7128 261.638 78.7508 261.91 77.6854 263.907C76.6885 265.776 75.9803 268.565 75.9803 271.81C75.9803 275.055 76.6885 277.844 77.6854 279.714C78.7508 281.711 79.7128 281.983 80.0057 281.983V284.983L79.8241 284.979C76.1485 284.804 73.1742 279.336 72.9891 272.488L72.9803 271.81C72.9803 264.535 76.1257 258.638 80.0057 258.637L80.1874 258.641C83.9836 258.822 87.0311 264.649 87.0311 271.81L87.0223 272.488C86.8342 279.448 83.7646 284.983 80.0057 284.983V281.983C80.2985 281.983 81.2614 281.712 82.327 279.714C83.3239 277.844 84.0311 275.055 84.0311 271.81Z" fill="black"/>
<path d="M86.6661 251.612C86.6661 248.312 86.0352 245.47 85.1466 243.566C84.3202 241.795 83.6409 241.498 83.5177 241.449C83.3907 241.5 82.7139 241.802 81.8908 243.566C81.0022 245.47 80.3713 248.312 80.3713 251.612C80.3713 254.912 81.0022 257.754 81.8908 259.658C82.7131 261.42 83.3897 261.722 83.5177 261.774C83.6418 261.724 84.321 261.427 85.1466 259.658C86.0352 257.754 86.6661 254.912 86.6661 251.612ZM89.6582 252.29C89.4936 259.25 86.8076 264.785 83.5187 264.785L83.3595 264.781C80.1434 264.606 77.5411 259.137 77.3792 252.29L77.3713 251.612C77.3713 244.337 80.1237 238.439 83.5187 238.439C86.9137 238.439 89.666 244.337 89.666 251.612L89.6582 252.29Z" fill="black"/>
<path d="M86.6661 230.096C86.666 226.93 86.0404 224.212 85.1642 222.397C84.7258 221.488 84.2815 220.923 83.9347 220.619C83.7688 220.474 83.6498 220.41 83.587 220.383C83.5563 220.37 83.5372 220.366 83.5294 220.364C83.5224 220.363 83.5197 220.362 83.5187 220.362C83.5178 220.362 83.5151 220.363 83.5079 220.364C83.5002 220.366 83.481 220.37 83.4503 220.383C83.3877 220.409 83.2686 220.474 83.1027 220.619C82.7558 220.923 82.3116 221.488 81.8732 222.397C80.997 224.212 80.3713 226.93 80.3713 230.096C80.3713 233.261 80.9969 235.98 81.8732 237.796C82.3115 238.704 82.7559 239.268 83.1027 239.572C83.2685 239.717 83.3876 239.782 83.4503 239.809C83.481 239.822 83.5002 239.826 83.5079 239.828C83.5151 239.83 83.5178 239.83 83.5187 239.83V242.83L83.3595 242.826C80.1434 242.657 77.541 237.371 77.3792 230.751L77.3713 230.096C77.3714 223.063 80.1237 217.362 83.5187 217.362L83.6769 217.366C86.9987 217.54 89.6659 223.173 89.666 230.096L89.6582 230.751C89.4937 237.479 86.8076 242.83 83.5187 242.83V239.83C83.5197 239.83 83.5224 239.83 83.5294 239.828C83.5372 239.826 83.5563 239.822 83.587 239.809C83.6498 239.782 83.7691 239.717 83.9347 239.572C84.2815 239.268 84.7259 238.704 85.1642 237.796C86.0405 235.98 86.6661 233.261 86.6661 230.096Z" fill="black"/>
<path d="M89.3003 210.776C89.3003 207.946 88.6142 205.53 87.6616 203.922C86.6702 202.249 85.7286 201.92 85.2749 201.92C84.8211 201.92 83.8796 202.249 82.8882 203.922C81.9357 205.53 81.2495 207.946 81.2495 210.776C81.2495 213.606 81.9357 216.022 82.8882 217.629C83.8796 219.302 84.8211 219.631 85.2749 219.631V222.631L85.0933 222.627C81.4177 222.47 78.4435 217.549 78.2583 211.386L78.2495 210.776C78.2496 204.228 81.3949 198.921 85.2749 198.92L85.4566 198.924C89.2528 199.087 92.3003 204.331 92.3003 210.776L92.2915 211.386C92.1033 217.65 89.0337 222.631 85.2749 222.631V219.631C85.7286 219.631 86.6701 219.303 87.6616 217.629C88.6142 216.022 89.3003 213.606 89.3003 210.776Z" fill="black"/>
<path d="M91.0567 188.382C91.0566 184.867 90.3386 181.832 89.3164 179.788C88.2045 177.564 87.2228 177.331 87.0313 177.331C86.8393 177.331 85.8587 177.565 84.7471 179.788C83.7249 181.832 83.0059 184.867 83.0059 188.382C83.0059 191.897 83.7249 194.932 84.7471 196.977C85.8586 199.199 86.8394 199.433 87.0313 199.434V202.434L86.8496 202.429C83.1741 202.242 80.1999 196.409 80.0147 189.105L80.0059 188.382C80.006 180.622 83.1513 174.331 87.0313 174.331L87.2129 174.336C91.0091 174.528 94.0566 180.743 94.0567 188.382L94.0479 189.105C93.8596 196.53 90.7901 202.434 87.0313 202.434V199.434C87.2228 199.434 88.2045 199.2 89.3164 196.977C90.3386 194.932 91.0567 191.897 91.0567 188.382Z" fill="black"/>
<path d="M357.276 161.597C357.276 158.352 356.569 155.563 355.572 153.694C354.507 151.696 353.544 151.424 353.251 151.424C352.958 151.424 351.996 151.697 350.931 153.694C349.934 155.563 349.226 158.352 349.226 161.597C349.226 164.842 349.934 167.631 350.931 169.5C351.996 171.498 352.958 171.77 353.251 171.77V174.77L353.069 174.766C349.394 174.591 346.419 169.123 346.234 162.275L346.226 161.597C346.226 154.322 349.371 148.424 353.251 148.424L353.433 148.428C357.229 148.609 360.276 154.436 360.276 161.597L360.268 162.275C360.079 169.235 357.01 174.77 353.251 174.77V171.77C353.544 171.77 354.507 171.498 355.572 169.5C356.569 167.631 357.276 164.842 357.276 161.597Z" fill="black"/>
<path d="M362.67 272.009C362.122 268.902 360.973 266.354 359.708 264.739C358.353 263.009 357.407 262.936 357.165 262.979C356.924 263.022 356.06 263.413 355.378 265.502C354.742 267.453 354.534 270.24 355.082 273.347C355.63 276.454 356.778 279.001 358.043 280.616C359.399 282.346 360.345 282.419 360.586 282.376L361.107 285.33L360.932 285.357C357.372 285.812 353.588 281.064 352.251 274.517L352.127 273.868C350.895 266.88 352.918 260.682 356.645 260.025L356.819 259.998C360.496 259.528 364.411 264.609 365.624 271.488L365.73 272.141C366.728 278.858 364.717 284.694 361.107 285.33L360.586 282.376C360.827 282.333 361.691 281.942 362.373 279.853C363.009 277.902 363.218 275.116 362.67 272.009Z" fill="black"/>
<path d="M359.911 253.807C359.911 250.216 359.314 247.104 358.46 245C358.029 243.942 357.593 243.284 357.261 242.939C357.241 242.918 357.221 242.899 357.203 242.881C357.185 242.899 357.165 242.918 357.145 242.939C356.814 243.284 356.376 243.941 355.946 245C355.092 247.104 354.495 250.216 354.495 253.807C354.495 257.398 355.092 260.511 355.946 262.614C356.376 263.673 356.814 264.331 357.145 264.676C357.165 264.697 357.185 264.716 357.203 264.733C357.221 264.715 357.241 264.697 357.261 264.676C357.593 264.331 358.029 263.673 358.46 262.614C359.314 260.511 359.911 257.398 359.911 253.807ZM362.904 254.531C362.751 261.955 360.257 267.859 357.203 267.859L357.055 267.854C354.069 267.667 351.653 261.835 351.503 254.531L351.495 253.807C351.495 246.047 354.05 239.757 357.203 239.756C360.355 239.756 362.911 246.047 362.911 253.807L362.904 254.531Z" fill="black"/>
<path d="M364.302 229.218C364.302 225.172 363.567 221.654 362.503 219.259C361.969 218.058 361.412 217.271 360.944 216.826C360.718 216.611 360.544 216.505 360.438 216.456C360.34 216.412 360.293 216.411 360.277 216.411C360.26 216.411 360.213 216.412 360.115 216.456C360.009 216.505 359.836 216.611 359.611 216.826C359.142 217.271 358.584 218.058 358.05 219.259C356.986 221.654 356.251 225.173 356.251 229.218C356.251 233.264 356.986 236.782 358.05 239.177C358.584 240.378 359.142 241.164 359.611 241.61C359.836 241.825 360.009 241.93 360.115 241.979C360.213 242.024 360.26 242.026 360.277 242.026V245.026L360.095 245.02C356.419 244.81 353.445 238.249 353.26 230.032L353.251 229.218C353.251 220.488 356.396 213.411 360.277 213.411L360.458 213.415C364.254 213.632 367.302 220.624 367.302 229.218L367.293 230.032C367.105 238.384 364.035 245.026 360.277 245.026V242.026C360.293 242.026 360.34 242.024 360.438 241.979C360.544 241.93 360.718 241.825 360.944 241.61C361.411 241.164 361.969 240.378 362.503 239.177C363.567 236.782 364.302 233.264 364.302 229.218Z" fill="black"/>
<path d="M359.033 205.946C359.033 202.566 358.319 199.653 357.309 197.696C356.22 195.586 355.249 195.334 355.007 195.334C354.766 195.334 353.794 195.587 352.706 197.696C351.696 199.653 350.982 202.566 350.982 205.946C350.982 209.327 351.696 212.239 352.706 214.195C353.794 216.305 354.766 216.557 355.007 216.557V219.557L354.826 219.554C351.15 219.373 348.176 213.722 347.991 206.646L347.982 205.946C347.982 198.429 351.127 192.334 355.007 192.334L355.189 192.339C358.985 192.525 362.033 198.546 362.033 205.946L362.024 206.646C361.836 213.839 358.766 219.557 355.007 219.557V216.557C355.249 216.557 356.22 216.305 357.309 214.195C358.319 212.239 359.033 209.327 359.033 205.946Z" fill="black"/>
<path d="M359.911 183.552C359.911 179.986 359.273 176.901 358.363 174.819C357.905 173.774 357.438 173.116 357.072 172.762C356.927 172.622 356.824 172.555 356.764 172.522C356.704 172.555 356.601 172.622 356.456 172.762C356.09 173.116 355.623 173.774 355.165 174.819C354.255 176.901 353.617 179.986 353.617 183.552C353.617 187.118 354.255 190.204 355.165 192.285C355.623 193.33 356.09 193.987 356.456 194.342C356.601 194.481 356.704 194.548 356.764 194.581C356.824 194.548 356.927 194.481 357.072 194.342C357.438 193.987 357.905 193.33 358.363 192.285C359.273 190.204 359.911 187.118 359.911 183.552ZM362.904 184.275C362.739 191.699 360.053 197.603 356.764 197.603L356.605 197.599C353.389 197.412 350.786 191.579 350.624 184.275L350.617 183.552C350.617 175.792 353.369 169.501 356.764 169.501C360.159 169.501 362.911 175.792 362.911 183.552L362.904 184.275Z" fill="black"/>
<path d="M114.255 302.429C114.255 310.74 98.5282 317.476 79.1277 317.476C59.7272 317.476 44 310.74 44 302.429C44 294.119 45.7135 300.342 78.2709 301.178C112.542 300.342 114.255 294.119 114.255 302.429Z" fill="black"/>
<path d="M79.0059 284.105H80.0059V301.669H79.0059V284.105Z" fill="black"/>
<path d="M350.225 142.277C350.225 137.696 353.939 133.982 358.52 133.982C363.101 133.982 366.815 137.696 366.815 142.277C366.815 146.858 363.101 150.572 358.52 150.572V154.572L358.837 154.567C365.375 154.402 370.645 149.132 370.811 142.594L370.815 142.277C370.815 135.487 365.31 129.982 358.52 129.982L358.203 129.986C351.559 130.155 346.225 135.593 346.225 142.277L346.23 142.594C346.398 149.238 351.836 154.572 358.52 154.572V150.572C353.939 150.572 350.225 146.858 350.225 142.277Z" fill="black"/>
<path d="M326.027 302.868C326.027 311.179 341.754 317.915 361.155 317.915C380.555 317.915 396.283 311.179 396.283 302.868C396.283 294.558 394.569 300.781 362.012 301.617C327.741 300.781 326.027 294.558 326.027 302.868Z" fill="black"/>
<path d="M361.277 284.545H360.277V302.108H361.277V284.545Z" fill="black"/>
<path d="M128.306 318.071H317.118V333H128.306V318.071Z" fill="black"/>
<path d="M154.652 303.141H290.772V318.071H154.652V303.141Z" fill="black"/>
<path d="M331.296 286.301C331.296 292.121 341.912 296.839 355.008 296.839C368.103 296.839 378.719 292.121 378.719 286.301C378.719 280.48 368.103 275.762 355.008 275.762C341.912 275.762 331.296 280.48 331.296 286.301Z" fill="black"/>
<path d="M376.061 285.058C374.838 285.846 374.838 287.634 376.061 288.421L387.491 295.782C388.822 296.639 390.574 295.684 390.574 294.101V279.379C390.574 277.796 388.822 276.84 387.491 277.697L376.061 285.058Z" fill="black"/>
<path d="M341.835 281.91C341.835 283.365 342.818 284.544 344.03 284.544C345.243 284.544 346.226 283.365 346.226 281.91C346.226 280.455 345.243 279.275 344.03 279.275C342.818 279.275 341.835 280.455 341.835 281.91Z" fill="white"/>
<path d="M350.971 275.523C350.785 276.109 351.168 276.723 351.776 276.814L366.321 278.996C367.113 279.115 367.716 278.3 367.372 277.577L365.026 272.65C364.904 272.395 364.681 272.203 364.41 272.122L354.068 269.02C353.545 268.863 352.993 269.154 352.828 269.675L350.971 275.523Z" fill="black"/>
<path d="M366.364 297.727C369.597 293.635 365.882 287.754 360.798 288.916L353.28 290.635C349.583 291.48 348.015 295.877 350.343 298.871V298.871C351.479 300.331 353.306 301.075 355.139 300.824L362.78 299.776C364.194 299.582 365.479 298.847 366.364 297.727V297.727Z" fill="black"/>
<path d="M381.431 284.7C381.535 284.7 381.637 284.675 381.73 284.629L387.618 281.685C388.072 281.458 388.257 280.904 388.029 280.45V280.45C387.789 279.97 387.192 279.796 386.732 280.072L381.087 283.459C380.506 283.807 380.753 284.7 381.431 284.7V284.7Z" fill="white"/>
<path d="M368.18 282.91V281.91H356.764V282.91H368.18Z" fill="black"/>
<path d="M364.505 274.563C364.475 274.473 364.405 274.403 364.315 274.373L359.318 272.708L354.574 271.126C354.38 271.061 354.179 271.206 354.179 271.411L354.179 271.659C354.179 271.776 354.247 271.882 354.353 271.932L364.685 276.7C364.923 276.81 365.178 276.582 365.095 276.333L364.505 274.563Z" fill="white"/>
<path d="M362.911 286.261C362.911 285.798 362.536 285.422 362.073 285.422H354.218C354.076 285.422 353.941 285.485 353.85 285.593V285.593C353.598 285.891 353.786 286.349 354.174 286.384L361.997 287.096C362.488 287.14 362.911 286.754 362.911 286.261V286.261Z" fill="white"/>
<path d="M362.754 285.422C362.323 285.422 361.941 285.698 361.805 286.106L359.673 292.503C359.515 292.975 359.733 293.493 360.178 293.716V293.716C360.701 293.978 361.341 293.738 361.558 293.195L364.119 286.794C364.382 286.137 363.898 285.422 363.191 285.422H362.754Z" fill="white"/>
<path d="M361.583 293.133C361.817 292.55 361.46 291.899 360.844 291.78L351.693 290.02C351.406 289.965 351.234 290.328 351.458 290.515V290.515C351.482 290.535 351.51 290.551 351.539 290.562L360.237 293.857C360.747 294.05 361.317 293.799 361.519 293.293L361.583 293.133Z" fill="white"/>
<path d="M363.623 297.853C364.081 297.611 363.892 296.916 363.375 296.941L354.301 297.366C353.061 297.424 352.937 299.21 354.157 299.439V299.439C354.28 299.462 354.405 299.463 354.528 299.442L363.48 297.902C363.53 297.893 363.578 297.877 363.623 297.853V297.853Z" fill="white"/>
<path d="M112.499 285.861C112.499 291.682 101.687 296.4 88.3487 296.4C75.0109 296.4 64.1984 291.682 64.1984 285.861C64.1984 280.041 75.0109 275.323 88.3487 275.323C101.687 275.323 112.499 280.041 112.499 285.861Z" fill="black"/>
<path d="M66.9864 284.639C68.1691 285.431 68.1691 287.17 66.9864 287.962L56.1144 295.243C54.7856 296.133 53.0015 295.181 53.0015 293.582V279.019C53.0015 277.42 54.7856 276.468 56.1144 277.357L66.9864 284.639Z" fill="black"/>
<path d="M102.839 281.471C102.839 282.926 101.659 284.105 100.204 284.105C98.7493 284.105 97.5697 282.926 97.5697 281.471C97.5697 280.015 98.7493 278.836 100.204 278.836C101.659 278.836 102.839 280.015 102.839 281.471Z" fill="white"/>
<path d="M91.9458 275.084C92.132 275.67 91.7495 276.284 91.141 276.375L76.5964 278.557C75.8042 278.676 75.2008 277.861 75.5452 277.138L77.8916 272.211C78.013 271.956 78.2366 271.764 78.5071 271.683L88.8488 268.58C89.3718 268.424 89.924 268.715 90.0893 269.236L91.9458 275.084Z" fill="black"/>
<path d="M76.5527 297.288C73.3203 293.196 77.0355 287.315 82.1192 288.477L89.6376 290.196C93.3341 291.041 94.9022 295.438 92.5743 298.431V298.431C91.4386 299.892 89.6109 300.636 87.7783 300.385L80.1374 299.337C78.7226 299.143 77.4379 298.408 76.5527 297.288V297.288Z" fill="black"/>
<path d="M62.1453 284.26C62.0416 284.26 61.9393 284.236 61.8466 284.19L55.9588 281.246C55.5039 281.019 55.3195 280.465 55.547 280.011V280.011C55.7869 279.531 56.3845 279.357 56.8444 279.633L62.4891 283.02C63.0701 283.368 62.8229 284.26 62.1453 284.26V284.26Z" fill="white"/>
<path d="M74.7365 282.47V281.47H87.0314V282.47H74.7365Z" fill="black"/>
<path d="M79.0714 274.124C79.1012 274.034 79.1715 273.964 79.2611 273.934L84.2582 272.268L89.0026 270.687C89.1969 270.622 89.3975 270.767 89.3975 270.972L89.3975 271.22C89.3975 271.337 89.3295 271.443 89.2232 271.492L78.8919 276.261C78.6533 276.371 78.3984 276.143 78.4815 275.893L79.0714 274.124Z" fill="white"/>
<path d="M80.0059 285.828C80.0059 285.361 80.384 284.983 80.8503 284.983H90.3454C90.4727 284.983 90.5947 285.034 90.6847 285.124V285.124C90.9746 285.414 90.791 285.91 90.3822 285.941L80.9151 286.67C80.4246 286.707 80.0059 286.32 80.0059 285.828V285.828Z" fill="white"/>
<path d="M81.4413 284.983C81.8905 284.983 82.2846 285.283 82.4048 285.716L84.2236 292.263C84.326 292.632 84.1698 293.023 83.8419 293.22V293.22C83.3756 293.5 82.77 293.276 82.5981 292.76L80.4446 286.299C80.2288 285.652 80.7107 284.983 81.3933 284.983H81.4413Z" fill="white"/>
<path d="M82.9959 292.62C82.8058 292.058 83.1433 291.455 83.7215 291.324L91.3332 289.594C91.6103 289.531 91.7962 289.871 91.5938 290.07V290.07C91.5698 290.094 91.5418 290.113 91.511 290.127L84.3869 293.316C83.8488 293.557 83.2201 293.282 83.0311 292.724L82.9959 292.62Z" fill="white"/>
<path d="M79.3819 297.416C78.9166 297.181 79.1012 296.477 79.622 296.501L89.1012 296.927C90.348 296.983 90.4678 298.781 89.2394 299.002V299.002C89.122 299.023 89.0018 299.024 88.884 299.005L79.5216 297.462C79.473 297.454 79.4259 297.438 79.3819 297.416V297.416Z" fill="white"/>
<path d="M141.04 311.045L154.652 303.141V318.071H128.306L141.04 311.045Z" fill="black"/>
<path d="M304.384 311.045L290.772 303.141V318.071H317.118L304.384 311.045Z" fill="black"/>
<path d="M208.661 284.26L216.126 237.277V303.141H204.709L208.661 284.26Z" fill="black"/>
<path d="M238.465 284.983L231 238V303.864H242.417L238.465 284.983Z" fill="black"/>
<mask id="mask0_130_9" style="mask-type:alpha" maskUnits="userSpaceOnUse" x="54" y="62" width="364" height="80">
<path d="M54.5383 62H417.232V141.916H54.5383V62Z" fill="#D9D9D9"/>
</mask>
<g mask="url(#mask0_130_9)">
<path d="M87.132 133.008L84.1834 130.305L153.639 54.5353L156.588 57.2382L87.132 133.008Z" fill="black"/>
<path d="M288.69 57.6648L291.65 54.9741L360.792 131.03L357.832 133.721L288.69 57.6648Z" fill="black"/>
<path d="M291.65 55.4139C291.65 17.6379 261.266 -13.0416 223.603 -13.5187L222.713 -13.5245C184.639 -13.5245 153.774 17.3405 153.774 55.4139L153.78 56.3046C154.253 93.6708 184.455 123.872 221.821 124.346L222.713 124.351C260.488 124.351 291.167 93.9673 291.644 56.3046L291.65 55.4139ZM298.65 55.4139C298.65 97.3531 264.652 131.351 222.713 131.351C180.773 131.351 146.774 97.3532 146.774 55.4139C146.774 13.4745 180.773 -20.5245 222.713 -20.5245C264.652 -20.5243 298.65 13.4746 298.65 55.4139Z" fill="black"/>
</g>
<defs>
<radialGradient id="paint0_radial_130_9" cx="0" cy="0" r="1" gradientUnits="userSpaceOnUse" gradientTransform="translate(223 223) rotate(90) scale(203)">
<stop offset="0.110577" stop-color="#BFFFED"/>
<stop offset="0.572115" stop-color="#84FFC6"/>
<stop offset="0.831731" stop-color="#3FEBA6"/>
<stop offset="1" stop-color="#1FBE74"/>
</radialGradient>
<linearGradient id="paint1_linear_130_9" x1="223" y1="20" x2="223" y2="426" gradientUnits="userSpaceOnUse">
<stop/>
<stop offset="1" stop-color="#666666"/>
</linearGradient>
</defs>
</svg>
