<svg width="48" height="42" viewBox="0 0 48 42" fill="none" xmlns="http://www.w3.org/2000/svg">
<path fill-rule="evenodd" clip-rule="evenodd" d="M25.5625 1.72925C25.5625 1.31485 25.3979 0.917419 25.1048 0.624394C24.8118 0.331368 24.4144 0.166748 24 0.166748C23.5856 0.166748 23.1882 0.331368 22.8951 0.624394C22.6021 0.917419 22.4375 1.31485 22.4375 1.72925V5.37508H18.325C17.5931 5.37476 16.8781 5.59471 16.2729 6.00633L12.7417 8.4105C12.655 8.4692 12.5526 8.50042 12.4479 8.50008H3.90208C3.48768 8.50008 3.09026 8.6647 2.79723 8.95773C2.5042 9.25075 2.33958 9.64818 2.33958 10.0626C2.33958 10.477 2.5042 10.8744 2.79723 11.1674C3.09026 11.4605 3.48768 11.6251 3.90208 11.6251H7.1875L0.172918 27.6251C0.0404204 27.9373 0.0114116 28.2838 0.0901428 28.6137C0.168874 28.9436 0.351206 29.2397 0.610418 29.4584C0.777085 29.5917 0.945835 29.7188 1.25417 29.9188C1.64167 30.1709 2.19583 30.498 2.90417 30.8209C4.32083 31.4688 6.36667 32.1126 8.89583 32.1126C10.9626 32.1165 13.006 31.676 14.8875 30.8209C15.5958 30.498 16.15 30.1709 16.5375 29.9188C16.85 29.7168 17.0167 29.5897 17.1833 29.4543C17.4446 29.2379 17.6284 28.9425 17.707 28.6125C17.7855 28.2825 17.7546 27.9359 17.6187 27.6251L10.6021 11.6251H12.4479C13.1792 11.6251 13.8937 11.4042 14.4979 10.9938L18.0312 8.58967C18.1173 8.53136 18.2189 8.50016 18.3229 8.50008H22.4375V38.7084H13.0896C12.6752 38.7084 12.2778 38.873 11.9847 39.1661C11.6917 39.4591 11.5271 39.8565 11.5271 40.2709C11.5271 40.6853 11.6917 41.0827 11.9847 41.3758C12.2778 41.6688 12.6752 41.8334 13.0896 41.8334H34.9104C35.3248 41.8334 35.7222 41.6688 36.0153 41.3758C36.3083 41.0827 36.4729 40.6853 36.4729 40.2709C36.4729 39.8565 36.3083 39.4591 36.0153 39.1661C35.7222 38.873 35.3248 38.7084 34.9104 38.7084H25.5625V8.50008H29.675C29.7792 8.50008 29.8833 8.53133 29.9667 8.58967L33.5021 10.9938C34.1062 11.4042 34.8208 11.6251 35.5521 11.6251H37.3979L30.3812 27.6251C30.2409 27.945 30.2119 28.3027 30.2988 28.6411C30.3856 28.9795 30.5834 29.279 30.8604 29.4918C30.8854 29.5105 30.8604 29.4918 30.8646 29.4918C31.0712 29.6474 31.2869 29.7907 31.5104 29.9209C31.8958 30.1542 32.4479 30.4542 33.1562 30.7542C35.04 31.5417 37.0624 31.944 39.1042 31.9376C41.1467 31.9436 43.1699 31.5406 45.0542 30.7522C45.7583 30.4543 46.3125 30.1542 46.7 29.9209C46.9227 29.7894 47.1383 29.6462 47.3458 29.4918C47.6229 29.279 47.8206 28.9795 47.9075 28.6411C47.9943 28.3027 47.9653 27.945 47.825 27.6251L40.8125 11.6251H44.1C44.5144 11.6251 44.9118 11.4605 45.2048 11.1674C45.4979 10.8744 45.6625 10.477 45.6625 10.0626C45.6625 9.64818 45.4979 9.25075 45.2048 8.95773C44.9118 8.6647 44.5144 8.50008 44.1 8.50008H35.5542C35.4502 8.50001 35.3486 8.46881 35.2625 8.4105L31.7271 6.00633C31.1225 5.59511 30.4082 5.37517 29.6771 5.37508H25.5625V1.72925ZM3.56875 27.6626C5.20854 28.5352 7.03834 28.9896 8.89583 28.9855C10.7533 28.9896 12.5831 28.5352 14.2229 27.6626L8.89583 15.5167L3.56875 27.6626ZM33.7979 27.6126C33.9687 27.6959 34.1604 27.7855 34.3708 27.8751C35.475 28.3397 37.0896 28.8126 39.1042 28.8126C40.9408 28.8178 42.7548 28.4076 44.4104 27.6126L39.1042 15.5147L33.7979 27.6126Z" fill="#87E7AD"/>
</svg>
